# xmcd
#
# Track frame offsets:
#	150
#	21453
#	34549
#	46424
#	65802
#	78514
#	95482
#	110730
#	125963
#	139716
#	163066
#	176634
#	186323
#	202186
#	218515
#
# Disc length: 3165 seconds
#
# Revision: 1
# Processed by: cddbd v1.5.1PL0 Copyright (c) Steve Scherf et al.
# Submitted via: audiograbber 1.83.01
#
DISCID=e70c5b0f
DTITLE=Flying J Wranglers - Song for New Mexico
DYEAR=2002
DGENRE=Country
TTITLE0=Would You Be a Cowboy Again
TTITLE1=Cattle Call
TTITLE2=Back in the Saddle
TTITLE3=Song for New Mexico
TTITLE4=Cedar Creek
TTITLE5=Mexican Wind
TTITLE6=Where the West Begins
TTITLE7=Ashokan Farewell
TTITLE8=Billy the Kid
TTITLE9=Born to be a Cowboy
TTITLE10=South of the Border
TTITLE11=Twelfth Street Rag
TTITLE12=Just One More Ride
TTITLE13=Just is a Reason
TTITLE14=Home on the Range
EXTD=
EXTT0=
EXTT1=
EXTT2=
EXTT3=
EXTT4=
EXTT5=
EXTT6=
EXTT7=
EXTT8=
EXTT9=
EXTT10=
EXTT11=
EXTT12=
EXTT13=
EXTT14=
PLAYORDER=
